<svg width="1319" height="1263" viewBox="0 0 1319 1263" fill="none" xmlns="http://www.w3.org/2000/svg">
<path d="M1317.5 717H1250.6L1198.7 841.7C1172.7 723 1080.8 642.3 946 642.3C778.2 642.3 628.3 773.9 606.4 951.4C584.4 1129.9 700.3 1261.5 869.1 1261.5C961 1261.5 1051.9 1218.6 1109.9 1150.8L1097.9 1250.5H1161.8L1188.8 1030.1L1302.7 752.9C1307.5 739.9 1312.5 729 1317.5 717ZM573.2 942.4C594.2 770.9 505.3 641.2 336.5 641.2C165.7 641.2 25.7999 772.8 3.79991 951.3C-18.2001 1130.8 89.6999 1262.4 260.5 1262.4C332.4 1262.4 396.4 1240.5 446.3 1204.6L415.3 1150.7C378.3 1179.6 328.4 1200.6 268.4 1200.6C137.5 1200.6 60.5999 1101.9 67.5999 972.2H568.1C570.3 962.3 572.2 951.3 573.2 942.4ZM989.8 617.3C1111.7 617.3 1189.6 552.5 1201.6 454.8C1211.6 380 1181.6 335.1 1126.7 301.2L1054.8 258.3C1006.8 228.4 994.9 200.5 998.9 163.6C1004.9 112.7 1049.8 61.9 1132.8 61.9C1207.7 61.9 1260.7 114.7 1250.7 189.5L1249.7 200.5H1314.6L1316.6 188.5C1329.6 78.8 1263.6 0 1140.8 0C1030.9 0 945 71.8 934 165.5C926 229.3 950 277.2 1010.9 313.1L1075.8 351C1129.7 382.9 1141.7 414.8 1136.7 454.7C1129.7 516.5 1078.8 555.4 997.8 555.4C908.9 555.4 860 509.5 870.9 420.8L872.9 403.8H808L805 424.7C790 543.5 864.9 617.3 989.8 617.3ZM731.1 271.2H300.5C330.5 153.5 426.4 65.8 552.2 65.8C667.1 65.8 736.1 144.6 731.1 271.2ZM796 304.2C817 132.6 728.1 3 559.3 3C388.4 3 248.6 134.6 226.6 313.1C204.6 492.6 312.5 624.2 483.3 624.2C555.2 624.2 619.2 602.3 669.1 566.4L638.1 512.5C601.1 541.4 551.2 562.4 491.2 562.4C360.3 562.4 283.4 463.7 290.4 334H791C793 324.1 795 313.1 796 304.2ZM1145.7 953.3C1128.7 1094.9 1022.8 1198.6 878 1198.6C738.1 1198.6 656.2 1094.9 673.2 953.3C691.1 809.7 799 705 938.9 705C1083.7 705 1163.6 809.7 1145.7 953.3ZM508.3 909.5H77.7999C106.7 791.8 203.6 704 328.5 704C444.4 704 512.3 782.8 508.3 909.5Z" fill="#FDE76D"/>
</svg>
